<?xml version="1.0" encoding="UTF-8" standalone="no"?>
<!DOCTYPE svg PUBLIC "-//W3C//DTD SVG 1.1//EN"
 "http://www.w3.org/Graphics/SVG/1.1/DTD/svg11.dtd">
<!-- Generated by graphviz version 2.40.1 (20161225.0304)
 -->
<!-- Title: dependencies Pages: 1 -->
<svg width="706pt" height="284pt"
 viewBox="0.00 0.00 706.00 284.00" xmlns="http://www.w3.org/2000/svg" xmlns:xlink="http://www.w3.org/1999/xlink">
<g id="graph0" class="graph" transform="scale(1 1) rotate(0) translate(4 280)">
<title>dependencies</title>
<polygon fill="#ffffff" stroke="transparent" points="-4,4 -4,-280 702,-280 702,4 -4,4"/>
<text text-anchor="start" x="328.0091" y="-42.4" font-family="sans-serif" font-weight="bold" font-size="14.00" fill="#000000">Legend</text>
<polygon fill="#ffffb3" stroke="transparent" points="115,-10 115,-30 135,-30 135,-10 115,-10"/>
<text text-anchor="start" x="138.629" y="-15.4" font-family="sans-serif" font-size="14.00" fill="#000000"> &#160;Declarations</text>
<polygon fill="#8dd3c7" stroke="transparent" points="228,-10 228,-30 248,-30 248,-10 228,-10"/>
<text text-anchor="start" x="251.7251" y="-15.4" font-family="sans-serif" font-size="14.00" fill="#000000"> &#160;Module</text>
<polygon fill="#80b1d3" stroke="transparent" points="314,-10 314,-30 334,-30 334,-10 314,-10"/>
<text text-anchor="start" x="337.7812" y="-15.4" font-family="sans-serif" font-size="14.00" fill="#000000"> &#160;Bootstrap</text>
<polygon fill="#fdb462" stroke="transparent" points="411,-10 411,-30 431,-30 431,-10 411,-10"/>
<text text-anchor="start" x="434.6732" y="-15.4" font-family="sans-serif" font-size="14.00" fill="#000000"> &#160;Providers</text>
<polygon fill="#fb8072" stroke="transparent" points="507,-10 507,-30 527,-30 527,-10 507,-10"/>
<text text-anchor="start" x="530.7258" y="-15.4" font-family="sans-serif" font-size="14.00" fill="#000000"> &#160;Exports</text>
<g id="clust1" class="cluster">
<title>cluster_MCTableModule</title>
<polygon fill="none" stroke="#000000" stroke-dasharray="1,5" points="8,-70 8,-268 690,-268 690,-70 8,-70"/>
</g>
<g id="clust2" class="cluster">
<title>cluster_MCTableModule_declarations</title>
<polygon fill="none" stroke="#000000" points="305,-78 305,-130 519,-130 519,-78 305,-78"/>
</g>
<g id="clust5" class="cluster">
<title>cluster_MCTableModule_imports</title>
<polygon fill="none" stroke="#000000" points="147,-78 147,-130 297,-130 297,-78 147,-78"/>
</g>
<g id="clust6" class="cluster">
<title>cluster_MCTableModule_exports</title>
<polygon fill="none" stroke="#000000" points="16,-208 16,-260 682,-260 682,-208 16,-208"/>
</g>
<!-- MCTable -->
<g id="node1" class="node">
<title>MCTable</title>
<polygon fill="#ffffb3" stroke="#000000" points="510.6545,-122 441.3455,-122 441.3455,-86 510.6545,-86 510.6545,-122"/>
<text text-anchor="middle" x="476" y="-99.8" font-family="Times,serif" font-size="14.00" fill="#000000">MCTable</text>
</g>
<!-- MCTableModule -->
<g id="node3" class="node">
<title>MCTableModule</title>
<polygon fill="#8dd3c7" stroke="#000000" points="424.7036,-187 421.7036,-191 400.7036,-191 397.7036,-187 311.2964,-187 311.2964,-151 424.7036,-151 424.7036,-187"/>
<text text-anchor="middle" x="368" y="-164.8" font-family="Times,serif" font-size="14.00" fill="#000000">MCTableModule</text>
</g>
<!-- MCTable&#45;&gt;MCTableModule -->
<g id="edge1" class="edge">
<title>MCTable&#45;&gt;MCTableModule</title>
<path fill="none" stroke="#000000" d="M476,-122.0091C476,-138.0494 476,-159 476,-159 476,-159 434.8465,-159 434.8465,-159"/>
<polygon fill="#000000" stroke="#000000" points="434.8465,-155.5001 424.8465,-159 434.8464,-162.5001 434.8465,-155.5001"/>
</g>
<!-- MCTableHeader -->
<g id="node2" class="node">
<title>MCTableHeader</title>
<polygon fill="#ffffb3" stroke="#000000" points="423.0646,-122 312.9354,-122 312.9354,-86 423.0646,-86 423.0646,-122"/>
<text text-anchor="middle" x="368" y="-99.8" font-family="Times,serif" font-size="14.00" fill="#000000">MCTableHeader</text>
</g>
<!-- MCTableHeader&#45;&gt;MCTableModule -->
<g id="edge2" class="edge">
<title>MCTableHeader&#45;&gt;MCTableModule</title>
<path fill="none" stroke="#000000" d="M368,-122.1061C368,-122.1061 368,-140.991 368,-140.991"/>
<polygon fill="#000000" stroke="#000000" points="364.5001,-140.9909 368,-150.991 371.5001,-140.991 364.5001,-140.9909"/>
</g>
<!-- MCPaginatorModule  -->
<g id="node5" class="node">
<title>MCPaginatorModule </title>
<polygon fill="#fb8072" stroke="#000000" points="674.4855,-252 535.5145,-252 535.5145,-216 674.4855,-216 674.4855,-252"/>
<text text-anchor="middle" x="605" y="-229.8" font-family="Times,serif" font-size="14.00" fill="#000000">MCPaginatorModule </text>
</g>
<!-- MCTableModule&#45;&gt;MCPaginatorModule  -->
<g id="edge4" class="edge">
<title>MCTableModule&#45;&gt;MCPaginatorModule </title>
<path fill="none" stroke="#000000" stroke-dasharray="5,2" d="M424.7648,-173C488.1394,-173 581.9192,-173 581.9192,-173 581.9192,-173 581.9192,-205.698 581.9192,-205.698"/>
<polygon fill="#000000" stroke="#000000" points="578.4193,-205.698 581.9192,-215.698 585.4193,-205.698 578.4193,-205.698"/>
</g>
<!-- MCTableModule&#45;&gt;MCPaginatorModule  -->
<g id="edge6" class="edge">
<title>MCTableModule&#45;&gt;MCPaginatorModule </title>
<path fill="none" stroke="#000000" stroke-dasharray="5,2" d="M424.7544,-166C501.2804,-166 628.0808,-166 628.0808,-166 628.0808,-166 628.0808,-205.7772 628.0808,-205.7772"/>
<polygon fill="#000000" stroke="#000000" points="624.5809,-205.7772 628.0808,-215.7772 631.5809,-205.7773 624.5809,-205.7772"/>
</g>
<!-- MCPaginator  -->
<g id="node6" class="node">
<title>MCPaginator </title>
<polygon fill="#fb8072" stroke="#000000" points="517.4348,-252 422.5652,-252 422.5652,-216 517.4348,-216 517.4348,-252"/>
<text text-anchor="middle" x="470" y="-229.8" font-family="Times,serif" font-size="14.00" fill="#000000">MCPaginator </text>
</g>
<!-- MCTableModule&#45;&gt;MCPaginator  -->
<g id="edge5" class="edge">
<title>MCTableModule&#45;&gt;MCPaginator </title>
<path fill="none" stroke="#000000" stroke-dasharray="5,2" d="M424.6694,-180C429.6706,-180 432.8875,-180 432.8875,-180 432.8875,-180 432.8875,-205.7181 432.8875,-205.7181"/>
<polygon fill="#000000" stroke="#000000" points="429.3875,-205.718 432.8875,-215.7181 436.3875,-205.7181 429.3875,-205.718"/>
</g>
<!-- MCTable  -->
<g id="node7" class="node">
<title>MCTable </title>
<polygon fill="#fb8072" stroke="#000000" points="404.6538,-252 331.3462,-252 331.3462,-216 404.6538,-216 404.6538,-252"/>
<text text-anchor="middle" x="368" y="-229.8" font-family="Times,serif" font-size="14.00" fill="#000000">MCTable </text>
</g>
<!-- MCTableModule&#45;&gt;MCTable  -->
<g id="edge7" class="edge">
<title>MCTableModule&#45;&gt;MCTable </title>
<path fill="none" stroke="#000000" stroke-dasharray="5,2" d="M368,-187.1061C368,-187.1061 368,-205.991 368,-205.991"/>
<polygon fill="#000000" stroke="#000000" points="364.5001,-205.9909 368,-215.991 371.5001,-205.991 364.5001,-205.9909"/>
</g>
<!-- MatSort  -->
<g id="node8" class="node">
<title>MatSort </title>
<polygon fill="#fb8072" stroke="#000000" points="313.8847,-252 248.1153,-252 248.1153,-216 313.8847,-216 313.8847,-252"/>
<text text-anchor="middle" x="281" y="-229.8" font-family="Times,serif" font-size="14.00" fill="#000000">MatSort </text>
</g>
<!-- MCTableModule&#45;&gt;MatSort  -->
<g id="edge8" class="edge">
<title>MCTableModule&#45;&gt;MatSort </title>
<path fill="none" stroke="#000000" stroke-dasharray="5,2" d="M322.5575,-187.1061C322.5575,-206.3391 322.5575,-234 322.5575,-234 322.5575,-234 321.6762,-234 321.6762,-234"/>
<polygon fill="#000000" stroke="#000000" points="323.7443,-230.5001 313.7442,-234 323.7442,-237.5001 323.7443,-230.5001"/>
</g>
<!-- MatTable  -->
<g id="node9" class="node">
<title>MatTable </title>
<polygon fill="#fb8072" stroke="#000000" points="229.9222,-252 156.0778,-252 156.0778,-216 229.9222,-216 229.9222,-252"/>
<text text-anchor="middle" x="193" y="-229.8" font-family="Times,serif" font-size="14.00" fill="#000000">MatTable </text>
</g>
<!-- MCTableModule&#45;&gt;MatTable  -->
<g id="edge9" class="edge">
<title>MCTableModule&#45;&gt;MatTable </title>
<path fill="none" stroke="#000000" stroke-dasharray="5,2" d="M311.1825,-178C260.0836,-178 193,-178 193,-178 193,-178 193,-205.973 193,-205.973"/>
<polygon fill="#000000" stroke="#000000" points="189.5001,-205.973 193,-215.973 196.5001,-205.973 189.5001,-205.973"/>
</g>
<!-- MCTableHeader  -->
<g id="node10" class="node">
<title>MCTableHeader </title>
<polygon fill="#fb8072" stroke="#000000" points="137.5654,-252 24.4346,-252 24.4346,-216 137.5654,-216 137.5654,-252"/>
<text text-anchor="middle" x="81" y="-229.8" font-family="Times,serif" font-size="14.00" fill="#000000">MCTableHeader </text>
</g>
<!-- MCTableModule&#45;&gt;MCTableHeader  -->
<g id="edge10" class="edge">
<title>MCTableModule&#45;&gt;MCTableHeader </title>
<path fill="none" stroke="#000000" stroke-dasharray="5,2" d="M311.298,-169C227.6575,-169 81,-169 81,-169 81,-169 81,-205.8939 81,-205.8939"/>
<polygon fill="#000000" stroke="#000000" points="77.5001,-205.8938 81,-215.8939 84.5001,-205.8939 77.5001,-205.8938"/>
</g>
<!-- MCPaginatorModule -->
<g id="node4" class="node">
<title>MCPaginatorModule</title>
<polygon fill="#8dd3c7" stroke="#000000" points="289.4846,-122 286.4846,-126 265.4846,-126 262.4846,-122 154.5154,-122 154.5154,-86 289.4846,-86 289.4846,-122"/>
<text text-anchor="middle" x="222" y="-99.8" font-family="Times,serif" font-size="14.00" fill="#000000">MCPaginatorModule</text>
</g>
<!-- MCPaginatorModule&#45;&gt;MCTableModule -->
<g id="edge3" class="edge">
<title>MCPaginatorModule&#45;&gt;MCTableModule</title>
<path fill="none" stroke="#000000" d="M268.9003,-122.027C268.9003,-138.3976 268.9003,-160 268.9003,-160 268.9003,-160 301.2149,-160 301.2149,-160"/>
<polygon fill="#000000" stroke="#000000" points="301.215,-163.5001 311.2149,-160 301.2149,-156.5001 301.215,-163.5001"/>
</g>
</g>
</svg>
